/* XPM */
static char * itverket_logo_xpm[] = {
"16 24 110 2",
"  	c #000007",
". 	c #160708",
"+ 	c #50280F",
"@ 	c #1C0A09",
"# 	c #000006",
"$ 	c #82451A",
"% 	c #D9752B",
"& 	c #C76C28",
"* 	c #48230F",
"= 	c #2F160C",
"- 	c #DB772C",
"; 	c #F68631",
"> 	c #B26024",
", 	c #25100A",
"' 	c #A25720",
") 	c #F18330",
"! 	c #E27B2D",
"~ 	c #683614",
"{ 	c #000000",
"] 	c #000003",
"^ 	c #582D12",
"/ 	c #F48531",
"( 	c #AE5D23",
"_ 	c #2F2E30",
": 	c #E4E4E4",
"< 	c #CCCCCC",
"[ 	c #38383A",
"} 	c #A45821",
"| 	c #F58631",
"1 	c #E17A2D",
"2 	c #3F1E0E",
"3 	c #070B12",
"4 	c #4F4F50",
"5 	c #ECECEC",
"6 	c #FDFDFD",
"7 	c #6D6D6E",
"8 	c #562C11",
"9 	c #E67D2E",
"0 	c #F58531",
"a 	c #914D1D",
"b 	c #C2C2C2",
"c 	c #FFFFFF",
"d 	c #BABABB",
"e 	c #BB6526",
"f 	c #F88731",
"g 	c #CF702A",
"h 	c #3C1E0F",
"i 	c #05050C",
"j 	c #939393",
"k 	c #F8F8F8",
"l 	c #EBEBEB",
"m 	c #232326",
"n 	c #000005",
"o 	c #793F19",
"p 	c #EC802F",
"q 	c #ED8130",
"r 	c #8C4A1C",
"s 	c #1B181A",
"t 	c #5D5D5E",
"u 	c #E6E6E6",
"v 	c #888889",
"w 	c #2D150B",
"x 	c #C96D28",
"y 	c #CC6F29",
"z 	c #2E160C",
"A 	c #C8C8C9",
"B 	c #FCFCFC",
"C 	c #C1C1C1",
"D 	c #090207",
"E 	c #85461A",
"F 	c #ED812F",
"G 	c #EF8230",
"H 	c #794019",
"I 	c #8B8B8C",
"J 	c #FAFAFA",
"K 	c #E1E1E1",
"L 	c #515152",
"M 	c #381A0C",
"N 	c #CD6F29",
"O 	c #F78731",
"P 	c #BD6626",
"Q 	c #0D0408",
"R 	c #242428",
"S 	c #F0F0F0",
"T 	c #79797A",
"U 	c #8D4B1D",
"V 	c #E87E2F",
"W 	c #B5B5B5",
"X 	c #D8D8D8",
"Y 	c #5E4B46",
"Z 	c #DE792D",
"` 	c #AB5C22",
" .	c #210D09",
"..	c #545456",
"+.	c #838485",
"@.	c #AB5A1C",
"#.	c #F38430",
"$.	c #DF792D",
"%.	c #5F3113",
"&.	c #03030A",
"*.	c #62341A",
"=.	c #DD782D",
"-.	c #F08331",
";.	c #A85A22",
">.	c #010007",
",.	c #603214",
"'.	c #A65922",
").	c #A35821",
"!.	c #401F0E",
"~.	c #000004",
"                                ",
"                                ",
"                                ",
"                        . + + @ ",
"                      # $ % & * ",
"                      = - ; > , ",
"                      ' ) ! ~   ",
"{ { { ]             ^ - / (   { ",
"_ : < [           @ } | 1 2 3 { ",
"4 5 6 7 ]         8 9 0 a , { { ",
"_ b c d {         e f g h { { { ",
"i j k l m n   # o p q r s { { { ",
"  t u k v {   w x / y z { { { { ",
"  { A B C { D E F G H # { { { { ",
"  { I J K L M N O P Q   { { { { ",
"  n R l S T U ; V ^     { { { { ",
"    { W X Y Z / `  .    { { { { ",
"    n ..+.@.#.$.%.      { { { { ",
"      &.*.=.-.;.#       { { { { ",
"      >.,.'.).!.          ~.{ { ",
"          #                 { { ",
"                              { ",
"                                ",
"                                "};
