/* XPM */
static char * itverket_logo_xpm[] = {
"120 25 140 2",
"  	c #FFFFFF",
". 	c #CBCBCB",
"+ 	c #000000",
"@ 	c #E7E7E7",
"# 	c #AAAAAA",
"$ 	c #673307",
"% 	c #F1801E",
"& 	c #F5821F",
"* 	c #C26616",
"= 	c #7A7A7A",
"- 	c #FCFCFC",
"; 	c #C96A17",
"> 	c #4C2404",
", 	c #7C7C7C",
"' 	c #733A08",
") 	c #B75F14",
"! 	c #B5B5B5",
"~ 	c #8F8F8F",
"{ 	c #D9721A",
"] 	c #EC7D1D",
"^ 	c #361802",
"/ 	c #89460C",
"( 	c #A95812",
"_ 	c #E3781C",
": 	c #160700",
"< 	c #646464",
"[ 	c #6F6F6F",
"} 	c #484848",
"| 	c #ECECEC",
"1 	c #BFBFBF",
"2 	c #616161",
"3 	c #9C500F",
"4 	c #9B500F",
"5 	c #D7D7D7",
"6 	c #A8A8A8",
"7 	c #505050",
"8 	c #EB7D1D",
"9 	c #DA731A",
"0 	c #A4A4A4",
"a 	c #E5E5E5",
"b 	c #F0F0F0",
"c 	c #383838",
"d 	c #727272",
"e 	c #E8E8E8",
"f 	c #D1D1D1",
"g 	c #4E4E4E",
"h 	c #C6C6C6",
"i 	c #FAFAFA",
"j 	c #F5F5F5",
"k 	c #4D4D4D",
"l 	c #A9A9A9",
"m 	c #F1F1F1",
"n 	c #757575",
"o 	c #D8D8D8",
"p 	c #F7F7F7",
"q 	c #424242",
"r 	c #FBFBFB",
"s 	c #AA5812",
"t 	c #81410B",
"u 	c #E2E2E2",
"v 	c #868686",
"w 	c #DDDDDD",
"x 	c #4D2404",
"y 	c #F07F1E",
"z 	c #D16E19",
"A 	c #C4C4C4",
"B 	c #E9E9E9",
"C 	c #848484",
"D 	c #686868",
"E 	c #B8B8B8",
"F 	c #F6F6F6",
"G 	c #999999",
"H 	c #BD6315",
"I 	c #6B3507",
"J 	c #E6E6E6",
"K 	c #626262",
"L 	c #4A4A4A",
"M 	c #E1E1E1",
"N 	c #AFAFAF",
"O 	c #C0C0C0",
"P 	c #969696",
"Q 	c #B1B1B1",
"R 	c #D9D9D9",
"S 	c #683407",
"T 	c #C66817",
"U 	c #5A5A5A",
"V 	c #BABABA",
"W 	c #989898",
"X 	c #ABABAB",
"Y 	c #2A2A2A",
"Z 	c #A2A2A2",
"` 	c #F9F9F9",
" .	c #CFCFCF",
"..	c #4D2504",
"+.	c #ACACAC",
"@.	c #6A6A6A",
"#.	c #565656",
"$.	c #909090",
"%.	c #773C09",
"&.	c #BB6215",
"*.	c #AEAEAE",
"=.	c #535353",
"-.	c #8B470D",
";.	c #878787",
">.	c #838383",
",.	c #2F1401",
"'.	c #9D5110",
").	c #8E8E8E",
"!.	c #D2D2D2",
"~.	c #DE751B",
"{.	c #AC5912",
"].	c #0F0F0F",
"^.	c #575757",
"/.	c #DBDBDB",
"(.	c #D57019",
"_.	c #D0D0D0",
":.	c #292929",
"<.	c #A7A7A7",
"[.	c #C3C3C3",
"}.	c #F3F3F3",
"|.	c #C1C1C1",
"1.	c #9A9A9A",
"2.	c #929292",
"3.	c #DCDCDC",
"4.	c #7E7E7E",
"5.	c #6A3507",
"6.	c #F2801E",
"7.	c #C96917",
"8.	c #F8F8F8",
"9.	c #B7B7B7",
"0.	c #363636",
"a.	c #D5D5D5",
"b.	c #532804",
"c.	c #9E9E9E",
"d.	c #D6D6D6",
"e.	c #612F06",
"f.	c #B15C13",
"g.	c #9B9B9B",
"h.	c #B2B2B2",
"i.	c #C5C5C5",
"      . + + + + + @     # + + + + + + + + + + + + + + + + + + + + + + + + + + $ % & & * + + + + + + + + + + + + + + + + + + + + + + + + + + + + + + + = - - - + + + + + + + + + + + + + + + + + + + + + + + + + + + + + + + + .     . + + + + + ",
"      . + + + + + @     # + + + + + + + + + + + + + + + + + + + + + + + + + + ; & & % > + + + + + + + + + + + + + + + + + + + + + + + + + + + + + + + ,       + + + + + + + + + + + + + + + + + + + + + + + + + + + + + + + + .     . + + + + + ",
"      . + + + + + @     # + + + + + + + + + + + + + + + + + + + + + + + + + ' & & & ) + + + + + + + + + + + + + + + + + + + + + + + + + + + + + + + + ,       + + + + + + + + + + + + + + + + + + + + + + + + + + + + + + + + .     . + + + + + ",
"! ! ! ~ + + + + + @     # + + + + + + + + + + + + + + + + + + + + + + + + + { & & ] ^ + + + + + + + + + + + + + + + + + + + + + + + + + + + + + + + + ,       + + + + + + + + + + + + + + + + + + + + + + + + + + + + + + + + .     . + + + + + ",
"+ + + + + + + + + @     # + + + + + + + + + + + + + + + + + + + + + + + + / & & & ( + + + + + + + + + + + + + + + + + + + + + + + + + + + + + + + + + ,       + + + + + + + + + + + + + + + + + + + + + + + + + + + + + + + + .     . + + + + + ",
"+ + + + + + + + + @     # + + + + + + + + + + + + + + + + + + + + + + + + _ & & _ : + + + + + + + + + + + + + + + + + + + + + + + + + + + + + + + + + ,       + + + + + + + + + + + + + + + + + + + + + + + + + + + + + + + + .     . + + + + + ",
"< [ [ } + + [ , , |     1 , , , , [ + + 2 , , [ + + + + + + + + + + + + 3 & & & 4 + + + + + + + + + + + + + + + + + + + + + + + + + + + + + + + + + + ,       + + + + + + + + + + + + + + + + + + + + + + + + + + + + + 2 , , 5     5 , , , , , ",
"@     # + + @                     @ + + 6       7 + + + + + + + + + + ^ 8 & & 9 + + + + 0 a             b ! c + + + + d e @ f g h i       j h k + + + ,       + + + + + + l       m 2 + + + n o i           p f 2 + + + .                       ",
"@     # + + @                     @ + + q r     # + + + + + + + + + + s & & & t + + + .                     u c + + + ,     m m               m 2 + + ,       + + + + + #       m 2 + + + v i                   i v + + .                       ",
"@     # + + f @ @ i     m @ @ @ @ f + + + 5     w + + + + + + + + + x y & & z + + + A                         u + + + ,                         B c + ,       + + + + #       m 2 + + + C i                       i D + E @ @ F     F @ @ @ @ @ ",
"@     # + + + + + @     # + + + + + + + + G       7 + + + + + + + + H & & & I + + D       J K + + + + L M       G + + ,         u [ + + + N       O + ,       + + + #       m 2 + + + + e     i P + + + + + Q       R + + + + .     . + + + + + ",
"@     # + + + + + @     # + + + + + + + + c i     # + + + + + + + S % & & T + + + #     F U + + + + + + c @     . + + ,       . + + + + + + V i 5 W + ,       + + X       m 2 + + + + Y       Z + + + + + + + !     ` + + + + .     . + + + + + ",
"@     # + + + + + @     # + + + + + + + + +  .    w + + + + + + + ; & & % ..+ + + #     @ + + + + + + + + .     . + + ,       + + + + + + + c c + + + ,       + +.      m 2 + + + + + @.      #.+ + + + + + + ,       + + + + .     . + + + + + ",
"@     # + + + + + @     # + + + + + + + + + $.      7 + + + + + %.& & & &.+ + + + #     @ + + + + + + + + .     . + + ,       + + + + + + + + + + + + ,       *.      m 2 + + + + + + @.      =.+ + + + + + + ,       + + + + .     . + + + + + ",
"@     # + + + + + @     # + + + + + + + + + + F     # + + + + + { & & ] ^ + + + + #     i @ @ @ @ @ @ @ @ F     . + + ,       + + + + + + + + + + + + ,             m 2 + + + + + + + @.      B @ @ @ @ @ @ @ |       + + + + .     . + + + + + ",
"@     # + + + + + @     # + + + + + + + + + + .     w + + + + -.& & & s + + + + + #                             . + + ,       + + + + + + + + + + + + ,             ;.+ + + + + + + + @.                              + + + + .     . + + + + + ",
"@     # + + + + + @     # + + + + + + + + + + >.      7 + + + _ & & _ ,.+ + + + + #                             . + + ,       + + + + + + + + + + + + ,             m 2 + + + + + + + @.                              + + + + .     . + + + + + ",
"@     # + + + + + @     # + + + + + + + + + + + m     l + + '.& & & 4 + + + + + + #     | , , , , , , , , , , , 2 + + ,       + + + + + + + + + + + + ,       #       m 2 + + + + + + @.      )., , , , , , , , , , , + + + + .     . + + + + + ",
"@     # + + + + + @     # + + + + + + + + + + + 1     !.+ ^ ] & & ~.+ + + + + + + #     @ + + + + + + + + + + + + + + ,       + + + + + + + + + + + + ,       + #       m 2 + + + + + @.      =.+ + + + + + + + + + + + + + + .     . + + + + + ",
"@     # + + + + + @     # + + + + + + + + + + + ,     v + {.& & & t + + + + + + + #     @ + + + + + + + + 7 ].+ + + + ,       + + + + + + + + + + + + ,       + + #       m 2 + + + + @.      ^.+ + + + + + + + 7 + + + + + + .     . + + + + + ",
"@     # + + + + + w     J c + + + + + + + + + + + | /.+ > y & & (.+ + + + + + + + #     F 2 + + + + + + + 5 p _.C + + ,       + + + + + + + + + + + + ,       + + + +.      m 2 + + + :.      <.+ + + + + + + G   w # + + + + [.    }.2 + + + + ",
"@     # + + + + + 0       u v , , [ + + + + + + + E [ + H & & & I + + + + + + + + <       b [ + + + + c .       Z + + ,       + + + + + + + + + + + + ,       + + + + |.      m 2 + + + @     i 1.+ + + + + 2.i     3.+ + + + 4.      m $., , , ",
"@     # + + + + + + !.            @ + + + + + + + + + 5.6.& & 7.+ + + + + + + + + + 1                         /.+ + + ,       + + + + + + + + + + + + ,       + + + + + .       m 2 + + , i                       8.2 + + + + + 9.              ",
"@     # + + + + + + 0.a.          @ + + + + + + + + + ; & & % b.+ + + + + + + + + + + .                     u c + + + ,       + + + + + + + + + + + + ,       + + + + + + .       m 2 + + v i                   i v + + + + + + + |.            ",
"f @ @ G + + + + + + + + c.d.@ @ @ f + + + + + + + + e.~.~.~.f.+ + + + + + + + + + + + + g.u             | h.c + + + + [ @ @ @ + + + + + + + + + + + + [ @ @ @ + + + + + + + i.@ @ @ 5 c + + [ !.F           F f < + + + + + + + + + v _.@ @ @ @ "};
