/* XPM */
static char * itverket_logo_xpm[] = {
"83 24 355 2",
"  	c #000007",
". 	c #000006",
"+ 	c #1B1B1E",
"@ 	c #545455",
"# 	c #505051",
"$ 	c #212123",
"% 	c #000004",
"& 	c #373739",
"* 	c #414143",
"= 	c #000008",
"- 	c #160708",
"; 	c #50280F",
"> 	c #1C0A09",
", 	c #101014",
"' 	c #444446",
") 	c #535355",
"! 	c #202023",
"~ 	c #000005",
"{ 	c #323234",
"] 	c #535354",
"^ 	c #4A4A4C",
"/ 	c #020209",
"( 	c #000000",
"_ 	c #555556",
": 	c #DFDFDF",
"< 	c #D6D6D6",
"[ 	c #626263",
"} 	c #9A9A9B",
"| 	c #B1B1B2",
"1 	c #02020B",
"2 	c #82451A",
"3 	c #D9752B",
"4 	c #C76C28",
"5 	c #48230F",
"6 	c #3B3B3C",
"7 	c #BCBCBC",
"8 	c #E0E0E1",
"9 	c #636365",
"0 	c #8D8D8E",
"a 	c #DCDCDC",
"b 	c #C8C8C9",
"c 	c #121216",
"d 	c #616162",
"e 	c #FBFBFB",
"f 	c #F1F1F1",
"g 	c #707071",
"h 	c #B0B0B0",
"i 	c #FDFDFD",
"j 	c #CACACB",
"k 	c #02020C",
"l 	c #2F160C",
"m 	c #DB772C",
"n 	c #F68631",
"o 	c #B26024",
"p 	c #25100A",
"q 	c #D6D6D7",
"r 	c #FFFFFF",
"s 	c #727273",
"t 	c #A1A1A2",
"u 	c #FAFAFA",
"v 	c #E3E3E3",
"w 	c #16161A",
"x 	c #989898",
"y 	c #919192",
"z 	c #414142",
"A 	c #AFAFB0",
"B 	c #C9C9CA",
"C 	c #A25720",
"D 	c #F18330",
"E 	c #E27B2D",
"F 	c #683614",
"G 	c #A1A1A1",
"H 	c #F9F9F9",
"I 	c #000001",
"J 	c #ADADAD",
"K 	c #000003",
"L 	c #582D12",
"M 	c #F48531",
"N 	c #AE5D23",
"O 	c #9E9E9F",
"P 	c #E2E2E2",
"Q 	c #313134",
"R 	c #CECECF",
"S 	c #BFBFC0",
"T 	c #5E5E5F",
"U 	c #E0E0E0",
"V 	c #EFEFF0",
"W 	c #FEFEFF",
"X 	c #F4F4F4",
"Y 	c #D0D0D0",
"Z 	c #5D5D5E",
"` 	c #E4E4E4",
" .	c #CCCCCC",
"..	c #38383A",
"+.	c #A45821",
"@.	c #F58631",
"#.	c #E17A2D",
"$.	c #3F1E0E",
"%.	c #070B12",
"&.	c #888788",
"*.	c #C5C4C5",
"=.	c #CECECE",
"-.	c #B2B2B2",
";.	c #03030A",
">.	c #A4A4A4",
",.	c #676768",
"'.	c #B2B2B3",
").	c #5A5A5B",
"!.	c #010107",
"~.	c #2D2D2F",
"{.	c #D1D1D1",
"].	c #C7C7C7",
"^.	c #5C5C5D",
"/.	c #313133",
"(.	c #9D9D9E",
"_.	c #CBCBCB",
":.	c #A2A2A2",
"<.	c #3A3A3C",
"[.	c #E1E1E1",
"}.	c #EDEDEE",
"|.	c #FEFEFE",
"1.	c #D7D7D7",
"2.	c #000002",
"3.	c #3D3D40",
"4.	c #E8E8E8",
"5.	c #636363",
"6.	c #666667",
"7.	c #F6F6F6",
"8.	c #E1E1E2",
"9.	c #4F4F50",
"0.	c #ECECEC",
"a.	c #6D6D6E",
"b.	c #562C11",
"c.	c #E67D2E",
"d.	c #F58531",
"e.	c #914D1D",
"f.	c #28292B",
"g.	c #AFAFAF",
"h.	c #FCFCFC",
"i.	c #F7F7F7",
"j.	c #F8F8F8",
"k.	c #E6E6E6",
"l.	c #696969",
"m.	c #222225",
"n.	c #DEDEDE",
"o.	c #F2F2F2",
"p.	c #E3E2E3",
"q.	c #6C6B6C",
"r.	c #454547",
"s.	c #303031",
"t.	c #ACADAD",
"u.	c #9C9C9C",
"v.	c #424244",
"w.	c #CDCDCD",
"x.	c #474749",
"y.	c #404042",
"z.	c #F5F5F5",
"A.	c #EAE9EA",
"B.	c #7C7C7D",
"C.	c #636364",
"D.	c #39393B",
"E.	c #8D8D8D",
"F.	c #CACACA",
"G.	c #DADADB",
"H.	c #909091",
"I.	c #848484",
"J.	c #39393A",
"K.	c #2F2E30",
"L.	c #C2C2C2",
"M.	c #BABABB",
"N.	c #BB6526",
"O.	c #F88731",
"P.	c #CF702A",
"Q.	c #3C1E0F",
"R.	c #818181",
"S.	c #BABABA",
"T.	c #979797",
"U.	c #9F9FA0",
"V.	c #DEDEDF",
"W.	c #DADADA",
"X.	c #2C2C2E",
"Y.	c #222224",
"Z.	c #C3C3C3",
"`.	c #999999",
" +	c #D2D2D2",
".+	c #4F4F51",
"++	c #717173",
"@+	c #B6B6B6",
"#+	c #FBFCFC",
"$+	c #131318",
"%+	c #B7B7B8",
"&+	c #AAAAAB",
"*+	c #969697",
"=+	c #ABABAC",
"-+	c #2F2F31",
";+	c #8E8E8E",
">+	c #EBEBEB",
",+	c #929292",
"'+	c #909090",
")+	c #898989",
"!+	c #464647",
"~+	c #05050C",
"{+	c #939393",
"]+	c #232326",
"^+	c #793F19",
"/+	c #EC802F",
"(+	c #ED8130",
"_+	c #8C4A1C",
":+	c #1B181A",
"<+	c #A5A5A6",
"[+	c #242427",
"}+	c #808081",
"|+	c #EDEDED",
"1+	c #5F5F60",
"2+	c #A5A5A5",
"3+	c #A6A6A6",
"4+	c #7A7A7B",
"5+	c #484849",
"6+	c #9F9F9F",
"7+	c #A3A3A3",
"8+	c #888889",
"9+	c #2D150B",
"0+	c #C96D28",
"a+	c #CC6F29",
"b+	c #2E160C",
"c+	c #18181B",
"d+	c #A9A9A9",
"e+	c #C4C4C5",
"f+	c #6A6A6B",
"g+	c #69696A",
"h+	c #7E7E7E",
"i+	c #010108",
"j+	c #0F0F14",
"k+	c #F5F5F6",
"l+	c #29292C",
"m+	c #B7B7B7",
"n+	c #A4A4A5",
"o+	c #C1C1C1",
"p+	c #090207",
"q+	c #85461A",
"r+	c #ED812F",
"s+	c #EF8230",
"t+	c #794019",
"u+	c #EEEEEE",
"v+	c #7D7D7E",
"w+	c #B0B0B1",
"x+	c #0E0E13",
"y+	c #F8F8F9",
"z+	c #F7F7F8",
"A+	c #8B8B8C",
"B+	c #515152",
"C+	c #381A0C",
"D+	c #CD6F29",
"E+	c #F78731",
"F+	c #BD6626",
"G+	c #0D0408",
"H+	c #D5D5D5",
"I+	c #C6C6C6",
"J+	c #525253",
"K+	c #212124",
"L+	c #ECECED",
"M+	c #E7E7E7",
"N+	c #ABABAB",
"O+	c #2E2E30",
"P+	c #AFB0B0",
"Q+	c #05040E",
"R+	c #242428",
"S+	c #F0F0F0",
"T+	c #79797A",
"U+	c #8D4B1D",
"V+	c #E87E2F",
"W+	c #18181C",
"X+	c #B9B9BA",
"Y+	c #1C1C1F",
"Z+	c #1F1F22",
"`+	c #141418",
" @	c #04040B",
".@	c #8C8C8D",
"+@	c #DCDCDD",
"@@	c #E9E9E9",
"#@	c #6F6F70",
"$@	c #08080E",
"%@	c #A8A8A8",
"&@	c #A8A8A9",
"*@	c #D9D9DA",
"=@	c #B5B5B5",
"-@	c #D8D8D8",
";@	c #5E4B46",
">@	c #DE792D",
",@	c #AB5C22",
"'@	c #210D09",
")@	c #151519",
"!@	c #626262",
"~@	c #656566",
"{@	c #E5E5E5",
"]@	c #727272",
"^@	c #B4B4B4",
"/@	c #B4B4B5",
"(@	c #757576",
"_@	c #E9E9EA",
":@	c #F3F3F3",
"<@	c #D3D3D3",
"[@	c #474748",
"}@	c #545456",
"|@	c #838485",
"1@	c #AB5A1C",
"2@	c #F38430",
"3@	c #DF792D",
"4@	c #5F3113",
"5@	c #828283",
"6@	c #C1C1C2",
"7@	c #1E1E21",
"8@	c #AEAEAF",
"9@	c #99999A",
"0@	c #A7A7A8",
"a@	c #FAFAFB",
"b@	c #3C3C40",
"c@	c #06060D",
"d@	c #EFEFEF",
"e@	c #FBFBFC",
"f@	c #62341A",
"g@	c #DD782D",
"h@	c #F08331",
"i@	c #A85A22",
"j@	c #7C7C7C",
"k@	c #434345",
"l@	c #D4D4D4",
"m@	c #717172",
"n@	c #5B5B5C",
"o@	c #E5E5E6",
"p@	c #686769",
"q@	c #373639",
"r@	c #D2D1D2",
"s@	c #7A7A7A",
"t@	c #27272A",
"u@	c #010007",
"v@	c #603214",
"w@	c #A65922",
"x@	c #A35821",
"y@	c #401F0E",
"z@	c #17171B",
"A@	c #606061",
"B@	c #979798",
"C@	c #2B2B2E",
"D@	c #919193",
"E@	c #4C4C4E",
"F@	c #0A0A11",
"G@	c #383839",
"H@	c #C0C0C0",
"I@	c #A6A6A7",
"J@	c #08080F",
"K@	c #272729",
"L@	c #29292A",
"M@	c #28282A",
"N@	c #29292B",
"                                                                                                                                                                      ",
"                                                                                                                                                                      ",
"                                                                                                                                                                      ",
"  . + @ # $   % & @ * =                               - ; ; >                                     , ' ) ! .                                   ~ { ] ^ /               ",
"  ( _ : < [   ( } : | 1                             . 2 3 4 5                                     6 7 8 9 (                                   ( 0 a b c               ",
"  ( d e f g   ( h i j k                             l m n o p                                     ' q r s (                                   ( t u v w .             ",
"  % & x y z   ( A i B k                             C D E F                                       ' < r s (                                   ( G H v w .             ",
"    I ( ( ( ( ( J i b ( ( ( ( ( ( ( K             L m M N   ( ( ( ( ( ( I     . ( ( ( ( ( ( ( (   ' < r s (   ~ ( ( ( (   ~ ( ( ( ( ( ( .   K ( O H P ( ( ( (         ",
"  ~ Q R S # T U V W X v v Y Z g `  ...          > +.@.#.$.%.&.*.Y Y =.-.# ;.  w >.-.,.-.Y Y '.).!.' < r s (   ~.>.{.].^.( /.(._.Y Y _.:.~.. <.[.}.|.H v v 1.s 2.      ",
"  % 3.u 4.5.6.X u r e 7.7.8.6.9.0.i a.K         b.c.d.e.f.g.H h.i.i.j.|.k.l.( m.n.e o.i i.i.i p.q.r.< r s ( s.t.h.7.u.( v.w.|.u i.i.u h.Y x.y.z.H r i 7.7.A.B.I       ",
"  % 3.e 4.C.D.E.F.i G.H.H.I.J.K.L.r M.(         N.O.P.Q.R.z.H S.T.T.U.V.|.W.X.Y.n.r H Z.`.}  +r Y .+< r ++/.@+#+X U.$+( %+i 0.&+T.*+=+V i J -+;+L.e >+,+'+)+!+~       ",
"  % 3.e 4.C.~ ( g.i B 2.( ( . ~+{+j.>+]+~   . ^+/+(+_+:+<+r j [+( ( ( }+X |+1+$ n.r 2+-+( ( _ 3+4+5+< r B.@+u i.6+m.. ]+W.h.-.I ( ( 2.7+r _.& ( G H v , ( ( ~         ",
"  % 3.e 4.C.  ( A i B k         Z k.j.8+(   9+0+M a+b+c+d+r e+f+f+f+g+0 X |+C.$ n.r h+i+    ;.j+;.' < r  .i k+O ~     l+a h.m+,.f+f+g+n+r w.D.( G H v w .             ",
"  % 3.e 4.C.  ( A i B k         ( b h.o+( p+q+r+s+t+. c+d+r u X X X X 7.r u+C.$ n.r v+i+          ' < r r |.w+x+i+    l+a r y+X X X X z+r =.D.( G H v w .             ",
"  % 3.e 4.C.  ( A i B k         ( A+u [.B+C+D+E+F+G+  c+d+r >+< < < < < H+I+J+K+n.r v+i+          ' < r L+r M+,..     l+a |.M+H+< < < < < N+O+( G H v w .             ",
"  % 3.e 4.C.  ( P+i j Q+        ~ R+>+S+T+U+n V+L     W+d+r X+Y+Y+Y+Y+Y+Z+`+ @m.n.r v+i+          ' < r .@+@|.@@#@$@  l+a e %@$@Y+Y+Y+Y+Z+, i+( G H v `+.             ",
"  % 3.e 4.C.  ( &@i *@v.( ( 2.    ( =@-@;@>@M ,@'@    )@>.r R ( ( ( ( !@'.;+~.Y.n.r v+i+          ' < r ++~@n.|.{@]@/ Z+W.h.^@( ( ( ( B./@(@W+( `.j._@_ ( ( (         ",
"  % 3.e 4.C.  ( d :@e <@^@7+[@    ~ }@|@1@2@3@4@      ;.5@7.H 6@x `.6+W.h.<@7@Y.n.r v+i+          ' < r s ( T U r k.~@( M.h.u+8@9@`.0@0.a@2+c+I @ 0.h.W.=@d+_ %       ",
"  % b@j.k.[     c@.@d@e e@k.,.      ;.f@g@h@i@.         m.-.X |.|.|.|.h.4.g+( Y.a r j@i+          k@l@i m@( i+n@U h.o@p@q@r@u |.|.|.|.u  +^     ( B.>+u e@u+s@I       ",
"  . t@=+6+*       x+s &@8@U.r.      u@v@w@x@y@          % z@,+7 I+].e+w+A@(   `+B@w+@             C@D@A E@K   . ~@&+8@8+F@G@:.H@].].o+2+' (       % 6.I@8@2+] %       ",
"    . ( ( ~         I ( ( ( ~           .                 . ( J@K@L@m.( 2.      ( ( %             . ( ( %       2.( ( (   ~ ( W+M@N@z@( %           2.( ( ( %         ",
"                                                                                                                                                                      ",
"                                                                                                                                                                      ",
"                                                                                                                                                                      "};
